

-: Cover :-



    	http://desibbrg.org/images/60778320184322043382.jpg
    


-: Screens :-


    	http://desibbrg.org/images/51698925174696376861.jpg
    	http://desibbrg.org/images/01194887962761131167.jpg
    	http://desibbrg.org/images/75360921983016709741.jpg
    	http://desibbrg.org/images/94398222865379576355.jpg
    	http://desibbrg.org/images/29558063942353388209.jpg
    	http://desibbrg.org/images/06761977775643417363.jpg
    	http://desibbrg.org/images/61298560037849871500.jpg
    	http://desibbrg.org/images/62102355622415818284.jpg
    	http://desibbrg.org/images/34463175189738656177.jpg
    	http://desibbrg.org/images/06183472675992269634.jpg
    	http://desibbrg.org/images/55385540576019007907.jpg
    	http://desibbrg.org/images/70004176337645514228.jpg
    	http://desibbrg.org/images/23763101013975107525.jpg
    	http://desibbrg.org/images/81045078219852648657.jpg
    	http://desibbrg.org/images/47521095117197573371.jpg
    	http://desibbrg.org/images/99077999253121662974.jpg
    	http://desibbrg.org/images/45831530873162182213.jpg
    	http://desibbrg.org/images/53347357591229791087.jpg
    	http://desibbrg.org/images/55246719268305421671.jpg

    	http://desibbrg.org/images/03840587014400697766.jpg


-: Info :-


Format                           : Matroska
Format version                   : Version 2
File size                        : 705 MiB
Duration                         : 2h 9mn

Video
ID                               : 1
Format                           : AVC
Format/Info                      : Advanced Video Codec
Format profile                   : High@L3.0
Format settings, CABAC           : Yes
Format settings, ReFrames        : 4 frames
Codec ID                         : V_MPEG4/ISO/AVC
Duration                         : 2h 9mn
Bit rate                         : 686 Kbps
Width                            : 640 pixels
Height                           : 480 pixels
Display aspect ratio             : 4:3
Frame rate                       : 29.970 fps
Color space                      : YUV
Chroma subsampling               : 4:2:0
Bit depth                        : 8 bits
Scan type                        : Progressive
Bits/(Pixel*Frame)               : 0.075
Stream size                      : 632 MiB (90%)

Audio
ID                               : 2
Format                           : MPEG Audio
Format version                   : Version 2
Format profile                   : Layer 3
Mode                             : Joint stereo
Codec ID                         : A_MPEG/L3
Codec ID/Hint                    : MP3
Duration                         : 2h 9mn
Bit rate mode                    : Constant
Bit rate                         : 64.0 Kbps
Channel(s)                       : 2 channels
Sampling rate                    : 24.0 KHz
Compression mode                 : Lossy
Stream size                      : 59.3 MiB (8%)
Writing library                  : LAME3.98r
Encoding settings                : -m j -V 4 -q 2 -lowpass 11 -b 64
Default                          : Yes
Forced                           : No
Ripper - TDBB
 
http://www.imdb.com/title/tt0349645/


Directed by
Ravi Tandon	 	
 
Writing credits
(in alphabetical order)
Shabd Kumar	 	written by

Cast (in alphabetical order)
	Vikas Anand	... 	Doctor
	Raj Babbar	... 	Thakur Ram Pratap SinghAmrit Gupta / Peter Martis / Mohammed Hussain
	Abhi Bhattacharya	... 	Senior Police Officer

	Danny Denzongpa	... 	Seth. Jagmohan
	T.P. Jain	... 	Subramaniam (Party Guest)
	Col. Kapoor	... 	D.I.G
	Satyendra Kapoor	... 	Murthy
	Mac Mohan	... 	Juda
	Suresh Oberoi	... 	Inspector J.S. Sharma
	Yunus Parvez	... 	Constable R.K. Dave
	Smita Patil	... 	Rajni / Radha Gupta / Fredi Martis / Salma Hussain
	Madan Puri	... 	Lakhani
	Parikshat Sahni	... 	Dinesh Mathur
	Anjan Srivastav	... 	Mehta (Journalist)
	Kiran Vairale	... 	Komal


A journalist, Mehta, on the run from Jagmohan's men, leaves an envelope with singer, Ramprasad Singh, and asks him to deliver it to Inspector J.S. Sharma at Bandra (Bomay) Police Station. Subsequently, Mehta is killed. Ramprasad turns over the envelope to Inspector Sharma, and Jagmohan is arrested and sentenced to two years in prison. Then Ramprasad starts receiving threats and threatening phone calls, and asks Sharma for protection. Ramprasad, his wife, Rajni, and son, are enrolled in the Witness Protection Program, and given a new identity. After sometime Jagmohan finds out their whereabouts, and Sharma gets them newer names, this time Catholic names. When Jagmohan gets their whereabouts again, Sharma gets the family Muslim names. Fed up of running for their lives, changing their religion and their location, Ramprasad decides to take on his original name, and return home to Bombay. Once there, Ramprasad devises his very own scheme of getting even with Jagmohan, initially by creating.
